***********************************************************************************
         Suicide Kings =Special Edition DVD= [1998]w/Alt. Ending Included
       -------------------------------------------------------------------
**While the IMDB site says that the movie was released in 1997 - The Special Edition DVD has the year *1998* printed as the release time, on both the DVD itself and on the back cover print.
Synopsis: 
Ex-mob boss Christopher Walken is kidnapped by a group of four kids in a haphazard attempt at paying the ransom for another, separate kidnapping. Complexities arise as the group cannot seem to do anything right.

Stars:
Christopher Walken, Denis Leary and Sean Patrick Flanery  ***********************************************************************************
Format                                   : Matroska
Format version                           : Version 2
File size                                : 1.54 GiB
Duration                                 : 1h 46mn
Overall bit rate                         : 2 068 Kbps

Video
Format                                   : AVC
Format/Info                              : Advanced Video Codec
Format profile                           : High@L3.0
Duration                                 : 1h 46mn
Bit rate                                 : 1 642 Kbps
Width                                    : 720 pixels
Height                                   : 464 pixels
Display aspect ratio                     : 16:9
Original display aspect ratio            : 16:9
Frame rate mode                          : Variable
Frame rate                               : 23.976 fps
Bits/(Pixel*Frame)                       : 0.205
Stream size                              : 1.22 GiB (79%)
Writing library                          : x264 core 120
Language                                 : English
Default                                  : Yes
Forced                                   : No

Audio
Format                                   : AC-3
Format/Info                              : Audio Coding 3
Codec ID                                 : A_AC3
Duration                                 : 1h 46mn
Bit rate mode                            : Constant
Bit rate                                 : 384 Kbps
Channel(s)                               : 6 channels
Sampling rate                            : 48.0 KHz
Stream size                              : 293 MiB (19%)
Language                                 : English
Default                                  : Yes
Forced                                   : No
***********************************************************************************
NOTE FOR MY MOVIE TORRENTS: Movie has been hashed with an MD5 checker and is listed below. MD5 programs are designed to verify data integrity using the MD5 (Message-Digest algorithm 5) 128-bit cryptographic hash. MD5 hashes used properly can confirm both file integrity and authenticity.
***********************************************************************************
Movie MD5:  a76817a6ac84018a56d93cf60fd6d43e
---------------------------------------------------------------------------------------
MD5 Checker for Linux:  http://sinf.gr/en/hashcalc.html
MD5 Checker for Windows:  http://getmd5checker.com/ 
---------------------------------------------------------------------------------------
 This was personally encoded by me, Carjacker,from the Special Edition DVD. Enjoy!
Leave your thoughts/opinions and ratings on the A/V of this film for others to see. Thanks! 